<?xml version="1.0" encoding="utf-8"?>
<!-- Generator: Adobe Illustrator 21.0.0, SVG Export Plug-In . SVG Version: 6.00 Build 0)  -->
<svg version="1.1" id="Capa_1" xmlns="http://www.w3.org/2000/svg" xmlns:xlink="http://www.w3.org/1999/xlink" x="0px" y="0px"
	 viewBox="0 0 512 512" style="enable-background:new 0 0 512 512;" xml:space="preserve">
<style type="text/css">
	.st0{fill:#736357;}
</style>
<g>
	<g>
		<path class="st0" d="M15.9,107.3l-4.3-2.5c-3.6-2.1-8.2-0.8-10.2,2.7c-2.1,3.6-0.8,8.2,2.7,10.2l4.3,2.5c1.2,0.7,2.5,1,3.7,1
			c2.6,0,5.1-1.3,6.5-3.8C20.7,113.9,19.4,109.4,15.9,107.3z"/>
	</g>
</g>
<g>
	<g>
		<path class="st0" d="M51.3,127.8l-8.9-5.1c-3.6-2.1-8.2-0.8-10.2,2.7c-2.1,3.6-0.8,8.2,2.7,10.2l8.9,5.1c1.2,0.7,2.5,1,3.7,1
			c2.6,0,5.1-1.3,6.5-3.8C56.2,134.4,54.9,129.9,51.3,127.8z"/>
	</g>
</g>
<g>
	<g>
		<path class="st0" d="M335.3,291.8l-8.9-5.1c-3.6-2.1-8.2-0.8-10.2,2.7c-2.1,3.6-0.8,8.2,2.7,10.2l8.9,5.1c1.2,0.7,2.5,1,3.7,1
			c2.6,0,5.1-1.3,6.5-3.8C340.1,298.4,338.9,293.9,335.3,291.8z"/>
	</g>
</g>
<g>
	<g>
		<path class="st0" d="M406.3,332.8l-8.9-5.1c-3.6-2.1-8.2-0.8-10.2,2.7c-2.1,3.6-0.8,8.2,2.7,10.2l8.9,5.1c1.2,0.7,2.5,1,3.7,1
			c2.6,0,5.1-1.3,6.5-3.8C411.1,339.4,409.9,334.9,406.3,332.8z"/>
	</g>
</g>
<g>
	<g>
		<path class="st0" d="M370.8,312.3l-8.9-5.1c-3.6-2.1-8.2-0.8-10.2,2.7c-2.1,3.6-0.8,8.2,2.7,10.2l8.9,5.1c1.2,0.7,2.5,1,3.7,1
			c2.6,0,5.1-1.3,6.5-3.8C375.6,318.9,374.4,314.4,370.8,312.3z"/>
	</g>
</g>
<g>
	<g>
		<path class="st0" d="M299.8,271.3l-8.9-5.1c-3.6-2.1-8.2-0.8-10.2,2.7c-2.1,3.6-0.8,8.2,2.7,10.2l8.9,5.1c1.2,0.7,2.5,1,3.7,1
			c2.6,0,5.1-1.3,6.5-3.8C304.6,277.9,303.4,273.4,299.8,271.3z"/>
	</g>
</g>
<g>
	<g>
		<path class="st0" d="M477.3,373.8l-8.9-5.1c-3.6-2.1-8.2-0.8-10.2,2.7c-2.1,3.6-0.8,8.2,2.7,10.2l8.9,5.1c1.2,0.7,2.5,1,3.7,1
			c2.6,0,5.1-1.3,6.5-3.8C482.1,380.4,480.9,375.9,477.3,373.8z"/>
	</g>
</g>
<g>
	<g>
		<path class="st0" d="M508.3,391.7l-4.3-2.5c-3.6-2.1-8.2-0.8-10.2,2.7c-2.1,3.6-0.8,8.2,2.7,10.2l4.3,2.5c1.2,0.7,2.5,1,3.7,1
			c2.6,0,5.1-1.3,6.5-3.8C513.1,398.3,511.8,393.7,508.3,391.7z"/>
	</g>
</g>
<g>
	<g>
		<path class="st0" d="M15.9,301.1l-4.3-2.5c-3.6-2.1-8.2-0.8-10.2,2.7c-2.1,3.6-0.8,8.2,2.7,10.2l4.3,2.5c1.2,0.7,2.5,1,3.7,1
			c2.6,0,5.1-1.3,6.5-3.8C20.7,307.7,19.4,303.1,15.9,301.1z"/>
	</g>
</g>
<g>
	<g>
		<path class="st0" d="M292.1,460.6l-8.6-5c-3.6-2.1-8.2-0.8-10.2,2.7c-2.1,3.6-0.8,8.2,2.7,10.2l8.6,5c1.2,0.7,2.5,1,3.7,1
			c2.6,0,5.1-1.3,6.5-3.8C296.9,467.3,295.7,462.7,292.1,460.6z"/>
	</g>
</g>
<g>
	<g>
		<path class="st0" d="M326.6,480.5l-8.6-5c-3.6-2.1-8.2-0.8-10.2,2.7c-2.1,3.6-0.8,8.2,2.7,10.2l8.6,5c1.2,0.7,2.5,1,3.7,1
			c2.6,0,5.1-1.3,6.5-3.8C331.4,487.2,330.2,482.6,326.6,480.5z"/>
	</g>
</g>
<g>
	<g>
		<path class="st0" d="M50.4,321l-8.6-5c-3.6-2.1-8.2-0.8-10.2,2.7c-2.1,3.6-0.8,8.2,2.7,10.2l8.6,5c1.2,0.7,2.5,1,3.7,1
			c2.6,0,5.1-1.3,6.5-3.8C55.2,327.7,54,323.1,50.4,321z"/>
	</g>
</g>
<g>
	<g>
		<path class="st0" d="M356.9,498l-4.3-2.5c-3.6-2.1-8.2-0.8-10.2,2.7c-2.1,3.6-0.8,8.2,2.7,10.2l4.3,2.5c1.2,0.7,2.5,1,3.7,1
			c2.6,0,5.1-1.3,6.5-3.8C361.7,504.7,360.4,500.1,356.9,498z"/>
	</g>
</g>
<g>
	<g>
		<path class="st0" d="M511,107.5c-2.1-3.6-6.7-4.8-10.2-2.7l-4.3,2.5c-3.6,2.1-4.8,6.7-2.7,10.2c1.4,2.4,3.9,3.8,6.5,3.8
			c1.3,0,2.6-0.3,3.7-1l4.3-2.5C511.8,115.7,513.1,111.1,511,107.5z"/>
	</g>
</g>
<g>
	<g>
		<path class="st0" d="M160.6,309.9c-2.1-3.6-6.7-4.8-10.2-2.7l-8.9,5.1c-3.6,2.1-4.8,6.7-2.7,10.2c1.4,2.4,3.9,3.8,6.5,3.8
			c1.3,0,2.6-0.3,3.7-1l8.9-5.1C161.4,318.1,162.6,313.5,160.6,309.9z"/>
	</g>
</g>
<g>
	<g>
		<path class="st0" d="M125.1,330.4c-2.1-3.6-6.7-4.8-10.2-2.7l-8.9,5.1c-3.6,2.1-4.8,6.7-2.7,10.2c1.4,2.4,3.9,3.8,6.5,3.8
			c1.3,0,2.6-0.3,3.7-1l8.9-5.1C125.9,338.6,127.2,334,125.1,330.4z"/>
	</g>
</g>
<g>
	<g>
		<path class="st0" d="M54.1,371.4c-2.1-3.6-6.7-4.8-10.2-2.7l-8.9,5.1c-3.6,2.1-4.8,6.7-2.7,10.2c1.4,2.4,3.9,3.8,6.5,3.8
			c1.3,0,2.6-0.3,3.7-1l8.9-5.1C54.9,379.6,56.2,375,54.1,371.4z"/>
	</g>
</g>
<g>
	<g>
		<path class="st0" d="M480,125.4c-2.1-3.6-6.7-4.8-10.2-2.7l-8.9,5.1c-3.6,2.1-4.8,6.7-2.7,10.2c1.4,2.4,3.9,3.8,6.5,3.8
			c1.3,0,2.6-0.3,3.7-1l8.9-5.1C480.9,133.6,482.1,129,480,125.4z"/>
	</g>
</g>
<g>
	<g>
		<path class="st0" d="M196.1,289.4c-2.1-3.6-6.7-4.8-10.2-2.7l-8.9,5.1c-3.6,2.1-4.8,6.7-2.7,10.2c1.4,2.4,3.9,3.8,6.5,3.8
			c1.3,0,2.6-0.3,3.7-1l8.9-5.1C196.9,297.6,198.1,293,196.1,289.4z"/>
	</g>
</g>
<g>
	<g>
		<path class="st0" d="M231.6,268.9c-2.1-3.6-6.7-4.8-10.2-2.7l-8.9,5.1c-3.6,2.1-4.8,6.7-2.7,10.2c1.4,2.4,3.9,3.8,6.5,3.8
			c1.3,0,2.6-0.3,3.7-1l8.9-5.1C232.4,277.1,233.6,272.5,231.6,268.9z"/>
	</g>
</g>
<g>
	<g>
		<path class="st0" d="M18.6,391.9c-2.1-3.6-6.7-4.8-10.2-2.7L4,391.7c-3.6,2.1-4.8,6.7-2.7,10.2c1.4,2.4,3.9,3.8,6.5,3.8
			c1.3,0,2.6-0.3,3.7-1l4.3-2.5C19.4,400.1,20.7,395.5,18.6,391.9z"/>
	</g>
</g>
<g>
	<g>
		<path class="st0" d="M511,301.3c-2.1-3.6-6.7-4.8-10.2-2.7l-4.3,2.5c-3.6,2.1-4.8,6.7-2.7,10.2c1.4,2.4,3.9,3.8,6.5,3.8
			c1.3,0,2.6-0.3,3.7-1l4.3-2.5C511.8,309.5,513.1,304.9,511,301.3z"/>
	</g>
</g>
<g>
	<g>
		<path class="st0" d="M204.5,478.3c-2.1-3.6-6.7-4.8-10.2-2.7l-8.6,5c-3.6,2.1-4.8,6.7-2.7,10.2c1.4,2.4,3.9,3.8,6.5,3.8
			c1.3,0,2.6-0.3,3.7-1l8.6-5C205.4,486.5,206.6,481.9,204.5,478.3z"/>
	</g>
</g>
<g>
	<g>
		<path class="st0" d="M441.8,353.3l-2.9-1.7l4.6-2.7c3.6-2.1,4.8-6.7,2.7-10.2c-2.1-3.6-6.7-4.8-10.2-2.7l-7.5,4.3V320
			c0-4.1-3.4-7.5-7.5-7.5s-7.5,3.4-7.5,7.5v28.9l-12.1,7c0,0,0,0,0,0l-8.6,5c0,0,0,0,0,0l-129.2,74.6V432c0-4.1-3.4-7.5-7.5-7.5
			s-7.5,3.4-7.5,7.5v3.5L98.7,348.9V223.7c0-4.1-3.4-7.5-7.5-7.5s-7.5,3.4-7.5,7.5v116.6l-7.5-4.3c-3.6-2.1-8.2-0.8-10.2,2.7
			c-2.1,3.6-0.8,8.2,2.7,10.2l4.6,2.7l-2.9,1.7c-3.6,2.1-4.8,6.7-2.7,10.2c1.4,2.4,3.9,3.8,6.5,3.8c1.3,0,2.6-0.3,3.7-1l8.9-5.1
			c0.5-0.3,0.9-0.6,1.3-1L252.4,455c0,0,0,0,0,0c0.2,0.1,0.4,0.2,0.7,0.3c0.1,0,0.1,0.1,0.2,0.1c0.2,0.1,0.4,0.1,0.6,0.2
			c0.1,0,0.2,0.1,0.3,0.1c0.2,0.1,0.4,0.1,0.6,0.1c0.1,0,0.2,0,0.3,0.1c0.3,0,0.6,0.1,1,0.1c1,0,1.9-0.2,2.8-0.6
			c0.2-0.1,0.3-0.2,0.5-0.2c0.1-0.1,0.3-0.1,0.4-0.2l2.3-1.3c0,0,0,0,0,0l8.6-5c0,0,0,0,0,0l25.8-14.9c0,0,0,0,0,0l8.6-5
			c0,0,0,0,0,0l25.9-14.9c0,0,0,0,0,0l8.6-5c0,0,0,0,0,0l25.9-15c0,0,0,0,0,0l8.6-5c0,0,0,0,0,0l49.7-28.7c0.4,0.4,0.8,0.7,1.3,1
			l8.9,5.1c1.2,0.7,2.5,1,3.7,1c2.6,0,5.1-1.3,6.5-3.8C446.6,359.9,445.4,355.4,441.8,353.3z"/>
	</g>
</g>
<g>
	<g>
		<path class="st0" d="M239.1,458.4c-2.1-3.6-6.7-4.8-10.2-2.7l-8.6,5c-3.6,2.1-4.8,6.7-2.7,10.2c1.4,2.4,3.9,3.8,6.5,3.8
			c1.3,0,2.6-0.3,3.7-1l8.6-5C239.9,466.5,241.1,462,239.1,458.4z"/>
	</g>
</g>
<g>
	<g>
		<path class="st0" d="M480.8,318.8c-2.1-3.6-6.7-4.8-10.2-2.7l-8.6,5c-3.6,2.1-4.8,6.7-2.7,10.2c1.4,2.4,3.9,3.8,6.5,3.8
			c1.3,0,2.6-0.3,3.7-1l8.6-5C481.6,326.9,482.8,322.4,480.8,318.8z"/>
	</g>
</g>
<g>
	<g>
		<path class="st0" d="M170,498.2c-2.1-3.6-6.7-4.8-10.2-2.7l-4.3,2.5c-3.6,2.1-4.8,6.7-2.7,10.2c1.4,2.4,3.9,3.8,6.5,3.8
			c1.3,0,2.6-0.3,3.7-1l4.3-2.5C170.8,506.4,172.1,501.8,170,498.2z"/>
	</g>
</g>
<g>
	<g>
		<path class="st0" d="M508.3,201.5l-4.3-2.5c-3.6-2.1-8.2-0.9-10.2,2.7c-2.1,3.6-0.9,8.2,2.7,10.3l4.3,2.5c1.2,0.7,2.5,1,3.8,1
			c2.6,0,5.1-1.3,6.5-3.7C513.1,208.2,511.8,203.6,508.3,201.5z"/>
	</g>
</g>
<g>
	<g>
		<path class="st0" d="M236.7,43.6l-8.6-5c-3.6-2.1-8.2-0.9-10.2,2.7c-2.1,3.6-0.9,8.2,2.7,10.3l8.6,5c1.2,0.7,2.5,1,3.8,1
			c2.6,0,5.1-1.3,6.5-3.7C241.5,50.3,240.3,45.7,236.7,43.6z"/>
	</g>
</g>
<g>
	<g>
		<path class="st0" d="M202.2,23.6l-8.6-5c-3.6-2.1-8.2-0.9-10.2,2.7s-0.9,8.2,2.7,10.3l8.6,5c1.2,0.7,2.5,1,3.8,1
			c2.6,0,5.1-1.3,6.5-3.7C207,30.3,205.8,25.7,202.2,23.6z"/>
	</g>
</g>
<g>
	<g>
		<path class="st0" d="M478.1,184l-8.6-5c-3.6-2.1-8.2-0.9-10.2,2.7c-2.1,3.6-0.9,8.2,2.7,10.3l8.6,5c1.2,0.7,2.5,1,3.8,1
			c2.6,0,5.1-1.3,6.5-3.7C482.9,190.6,481.7,186.1,478.1,184z"/>
	</g>
</g>
<g>
	<g>
		<path class="st0" d="M443.6,163.9l-7.6-4.4l5.8-3.3c3.6-2.1,4.8-6.7,2.7-10.2c-2.1-3.6-6.7-4.8-10.2-2.7l-8.9,5.1
			c-1.4,0.8-2.4,2-3,3.3L259.9,57c0,0,0,0-0.1,0c-0.3-0.2-0.5-0.3-0.8-0.4c0,0,0,0,0,0c-0.3-0.1-0.5-0.2-0.8-0.3
			c-0.1,0-0.1,0-0.2-0.1c-0.2-0.1-0.4-0.1-0.7-0.1c-0.1,0-0.2,0-0.2,0c-0.3,0-0.6-0.1-0.9-0.1c0,0,0,0,0,0c-0.3,0-0.6,0-0.9,0.1
			c-0.1,0-0.2,0-0.2,0c-0.2,0-0.5,0.1-0.7,0.1c-0.1,0-0.1,0-0.2,0.1c-0.3,0.1-0.6,0.2-0.8,0.3c0,0,0,0,0,0c-0.3,0.1-0.6,0.3-0.8,0.4
			c0,0,0,0-0.1,0L89.9,151.6c-0.6-1.3-1.7-2.5-3-3.3l-8.9-5.1c-3.6-2.1-8.2-0.8-10.2,2.7c-2.1,3.6-0.8,8.2,2.7,10.2l5.8,3.3
			l-7.6,4.4c-3.6,2.1-4.8,6.7-2.7,10.2c1.4,2.4,3.9,3.7,6.5,3.7c1.3,0,2.6-0.3,3.8-1l7.6-4.4v19.3c0,4.1,3.4,7.5,7.5,7.5
			s7.5-3.4,7.5-7.5v-19.4l145.5,84c-0.2,1.5,0.1,3.1,1,4.5c0.8,1.4,2,2.5,3.4,3.1v135.1c0,4.1,3.4,7.5,7.5,7.5
			c4.1,0,7.5-3.4,7.5-7.5V264.1c1.4-0.6,2.6-1.7,3.4-3.1c0.8-1.4,1.1-3,1-4.5l145.5-84c0,0,0,0,0,0v115c0,4.1,3.4,7.5,7.5,7.5
			s7.5-3.4,7.5-7.5v-115l7.5,4.4c1.2,0.7,2.5,1,3.8,1c2.6,0,5.1-1.3,6.5-3.7C448.4,170.6,447.2,166,443.6,163.9z M256.1,246.1
			l-150-86.6l142.9-82.8l0.2-0.1c1.2,2.6,3.8,4.4,6.8,4.4c3.1,0,5.8-1.9,6.9-4.7l0.6,0.3c0.3,0.2,0.6,0.3,0.9,0.5l24.2,14.1
			c0.2,0.2,0.5,0.4,0.8,0.5l8.6,5c0.3,0.1,0.5,0.3,0.8,0.4l24.4,14.2c0.2,0.2,0.4,0.3,0.7,0.4l8.6,5c0.2,0.1,0.4,0.2,0.5,0.3
			l24.8,14.5c0.2,0.1,0.3,0.2,0.5,0.3l8.6,5c0.1,0.1,0.2,0.1,0.3,0.2l25.4,14.8c0.1,0,0.1,0.1,0.2,0.1l8.6,5c0,0,0.1,0,0.1,0.1
			l4.4,2.6L256.1,246.1z"/>
	</g>
</g>
<g>
	<g>
		<path class="st0" d="M167.8,3.5L163.4,1c-3.6-2.1-8.2-0.9-10.2,2.7c-2.1,3.6-0.9,8.2,2.7,10.3l4.3,2.5c1.2,0.7,2.5,1,3.8,1
			c2.6,0,5.1-1.3,6.5-3.7C172.5,10.2,171.3,5.6,167.8,3.5z"/>
	</g>
</g>
<g>
	<g>
		<path class="st0" d="M18.3,201.7c-2.1-3.6-6.7-4.8-10.2-2.7l-4.3,2.5c-3.6,2.1-4.8,6.7-2.7,10.2c1.4,2.4,3.9,3.7,6.5,3.7
			c1.3,0,2.6-0.3,3.8-1l4.3-2.5C19.2,209.9,20.4,205.3,18.3,201.7z"/>
	</g>
</g>
<g>
	<g>
		<path class="st0" d="M329.7,21.3c-2.1-3.6-6.7-4.8-10.2-2.7l-8.6,5c-3.6,2.1-4.8,6.7-2.7,10.2c1.4,2.4,3.9,3.7,6.5,3.7
			c1.3,0,2.6-0.3,3.7-1l8.6-5C330.6,29.5,331.8,24.9,329.7,21.3z"/>
	</g>
</g>
<g>
	<g>
		<path class="st0" d="M295.1,41.3c-2.1-3.6-6.7-4.8-10.2-2.7l-8.6,5c-3.6,2.1-4.8,6.7-2.7,10.2c1.4,2.4,3.9,3.7,6.5,3.7
			c1.3,0,2.6-0.3,3.8-1l8.6-5C296,49.5,297.2,44.9,295.1,41.3z"/>
	</g>
</g>
<g>
	<g>
		<path class="st0" d="M52.9,181.7c-2.1-3.6-6.7-4.8-10.2-2.7l-8.7,5c-3.6,2.1-4.8,6.7-2.7,10.2c1.4,2.4,3.9,3.7,6.5,3.7
			c1.3,0,2.6-0.3,3.8-1l8.7-5C53.8,189.9,55,185.3,52.9,181.7z"/>
	</g>
</g>
<g>
	<g>
		<path class="st0" d="M360,3.7c-2.1-3.6-6.7-4.8-10.2-2.7l-4.3,2.5c-3.6,2.1-4.8,6.7-2.7,10.2c1.4,2.4,3.9,3.7,6.5,3.7
			c1.3,0,2.6-0.3,3.8-1l4.3-2.5C360.8,11.9,362.1,7.3,360,3.7z"/>
	</g>
</g>
<g>
	<g>
		<path class="st0" d="M256.1,216c-4.1,0-7.5,3.4-7.5,7.5v10c0,4.1,3.4,7.5,7.5,7.5c4.1,0,7.5-3.4,7.5-7.5v-10
			C263.6,219.4,260.3,216,256.1,216z"/>
	</g>
</g>
<g>
	<g>
		<path class="st0" d="M256.1,96c-4.1,0-7.5,3.4-7.5,7.5v10c0,4.1,3.4,7.5,7.5,7.5c4.1,0,7.5-3.4,7.5-7.5v-10
			C263.6,99.4,260.3,96,256.1,96z"/>
	</g>
</g>
<g>
	<g>
		<path class="st0" d="M256.1,136c-4.1,0-7.5,3.4-7.5,7.5v10c0,4.1,3.4,7.5,7.5,7.5c4.1,0,7.5-3.4,7.5-7.5v-10
			C263.6,139.4,260.3,136,256.1,136z"/>
	</g>
</g>
<g>
	<g>
		<path class="st0" d="M256.1,176c-4.1,0-7.5,3.4-7.5,7.5v10c0,4.1,3.4,7.5,7.5,7.5c4.1,0,7.5-3.4,7.5-7.5v-10
			C263.6,179.4,260.3,176,256.1,176z"/>
	</g>
</g>
</svg>
